<?xml version="1.0" standalone="no"?>
<!DOCTYPE svg PUBLIC "-//W3C//DTD SVG 20010904//EN"
 "http://www.w3.org/TR/2001/REC-SVG-20010904/DTD/svg10.dtd">
<svg version="1.0" xmlns="http://www.w3.org/2000/svg"
 width="500.000000pt" height="500.000000pt" viewBox="0 0 500.000000 500.000000"
 preserveAspectRatio="xMidYMid meet">
<metadata>
Created by potrace 1.14, written by Peter Selinger 2001-2017
</metadata>
<g transform="translate(0.000000,500.000000) scale(0.100000,-0.100000)"
fill="#000000" stroke="none">
<path d="M0 2500 l0 -2500 2500 0 2500 0 0 2500 0 2500 -2500 0 -2500 0 0
-2500z m1713 1025 c8 -8 90 -120 181 -249 92 -130 171 -238 175 -241 5 -2 44
45 87 105 l79 110 172 0 c95 0 173 -3 173 -6 0 -4 -81 -120 -180 -259 l-180
-252 -2 -354 -3 -354 -140 0 -140 0 -3 353 -2 354 -273 381 c-150 210 -277
388 -281 396 -16 25 17 31 171 31 120 0 155 -3 166 -15z m1472 -667 c107 -23
223 -105 278 -199 29 -49 57 -146 57 -196 l0 -33 -135 0 c-100 0 -137 3 -139
13 -3 6 -7 24 -10 39 -9 41 -60 93 -104 106 -103 31 -200 -1 -239 -78 -69
-135 20 -260 185 -260 58 0 153 -25 215 -57 260 -131 314 -502 102 -702 -81
-77 -212 -131 -316 -131 l-29 0 0 135 0 134 38 7 c90 16 143 69 150 149 5 67
-9 105 -54 145 -38 33 -70 43 -200 63 -223 35 -370 171 -393 364 -24 204 71
383 251 468 108 51 211 61 343 33z"/>
</g>
</svg>
